<svg xmlns="http://www.w3.org/2000/svg" viewBox="0 0 290.3 331.23"><defs><style>.cls-1{fill:#fff;}.cls-2{fill:#293549;}.cls-3{fill:#3bab5e;}.cls-4{fill:#f7f8f9;}.cls-5{fill:#424143;opacity:0.4;}.cls-5,.cls-6{isolation:isolate;}.cls-6{fill:#221f1f;opacity:0.1;}</style></defs><title>Recurso 1</title><g id="Capa_2" data-name="Capa 2"><g id="Pagina_inicial_Movil" data-name="Pagina inicial Movil"><path class="cls-1" d="M0,89A14,14,0,0,1,6.3,78L138.85,1.49a14,14,0,0,1,12.6,0L284,78A14,14,0,0,1,290.3,89v153.1A14,14,0,0,1,284,253L151.45,329.57a14,14,0,0,1-12.6,0L6.3,253A14,14,0,0,1,0,242.08Z"/><path class="cls-2" d="M69.26,55.51a8.92,8.92,0,0,1,8.95-8.95H212.42a8.92,8.92,0,0,1,9,8.95V275.72a8.92,8.92,0,0,1-9,8.95H78.21a8.92,8.92,0,0,1-8.95-8.95Z"/><rect class="cls-3" x="78.21" y="77.71" width="134.21" height="168.18"/><path class="cls-4" d="M150.78,61.14h-11.1a.44.44,0,0,1-.5-.5.53.53,0,0,1,.5-.49h11.1c.34,0,.5.16.5.49A.44.44,0,0,1,150.78,61.14Z"/><path class="cls-4" d="M154.43,63.63H136.2a.53.53,0,0,1-.49-.5.44.44,0,0,1,.49-.5h18.23a.54.54,0,0,1,.5.5A.44.44,0,0,1,154.43,63.63Z"/><path class="cls-4" d="M150.78,66h-11.1a.54.54,0,0,1-.5-.5.53.53,0,0,1,.5-.5h11.1a.5.5,0,0,1,0,1Z"/><path class="cls-4" d="M145.32,276.55a9.65,9.65,0,0,1-9.61-9.78,9.51,9.51,0,0,1,9.61-9.61,9.62,9.62,0,0,1,9.61,9.61A9.77,9.77,0,0,1,145.32,276.55Zm0-18.56a8.78,8.78,0,1,0,8.78,8.78A8.85,8.85,0,0,0,145.32,258Z"/><rect class="cls-4" x="89.31" y="86.66" width="111.85" height="31.65"/><rect class="cls-5" x="128.58" y="128.75" width="72.74" height="31.65"/><rect class="cls-5" x="89.31" y="128.41" width="31.98" height="31.98"/><rect class="cls-5" x="128.58" y="168.18" width="72.74" height="31.65"/><rect class="cls-5" x="89.31" y="167.85" width="31.98" height="31.98"/><rect class="cls-5" x="128.58" y="207.45" width="72.74" height="31.65"/><rect class="cls-5" x="89.31" y="207.29" width="31.98" height="31.98"/><path class="cls-6" d="M284,78,151.28,1.49a11.85,11.85,0,0,0-6-1.49V331.23a11.85,11.85,0,0,0,6-1.49l132.56-76.56a14,14,0,0,0,6.29-10.93V89C290.3,85,287.48,80,284,78Z"/></g></g></svg>